<svg width="80" height="80" viewBox="0 0 80 80" fill="none" xmlns="http://www.w3.org/2000/svg">
<circle cx="40" cy="40" r="40" fill="#5380EA"/>
<path d="M34.7556 45.6319H34.1733L34.5851 45.2153C35.6275 44.1601 35.6275 42.4434 34.5851 41.3884C34.5818 41.3851 34.5785 41.3819 34.5751 41.3785C33.5314 40.3331 31.8417 40.3364 30.8018 41.3883L30.3901 41.8048V41.2159C30.3901 39.7237 29.1901 38.5096 27.7151 38.5096C26.24 38.5096 25.04 39.7236 25.04 41.2159V41.8047L24.6284 41.3882C23.5853 40.3334 21.8883 40.3336 20.8454 41.3884C19.8027 42.4435 19.8026 44.1604 20.8454 45.2156L21.2569 45.632H20.6748C19.2 45.6319 18 46.846 18 48.3382C18 49.8304 19.2 51.0445 20.675 51.0445H21.2571L20.8454 51.461C19.8026 52.516 19.8026 54.2329 20.8453 55.2881C20.8492 55.292 20.8532 55.2959 20.8572 55.2999C21.9009 56.343 23.5892 56.3393 24.6286 55.2883L25.0401 54.8719V55.4608C25.0401 56.9529 26.2402 58.167 27.7153 58.167C29.1902 58.167 30.3901 56.953 30.3901 55.4608V54.8718L30.8018 55.2884C31.8449 56.3433 33.542 56.3432 34.5849 55.2881C35.6277 54.233 35.6277 52.5161 34.5849 51.461L34.1731 51.0445H34.7555C36.2304 51.0445 37.4304 49.8304 37.4304 48.3381C37.4305 46.8459 36.2306 45.6319 34.7556 45.6319ZM34.7556 49.2717H33.1893C32.8106 49.2717 32.4748 49.5178 32.3568 49.8819C32.2809 50.1161 32.1864 50.3466 32.0761 50.567C31.905 50.909 31.9705 51.3233 32.2383 51.5942L33.3459 52.7147C33.7056 53.0786 33.7056 53.6708 33.3459 54.0347C32.9861 54.3986 32.4006 54.3986 32.0409 54.0347L30.9335 52.9143C30.6657 52.6434 30.2564 52.5772 29.9185 52.7501C29.7003 52.8618 29.4724 52.9573 29.241 53.0341C28.8812 53.1536 28.638 53.4933 28.638 53.8764V55.4609C28.638 55.9756 28.224 56.3943 27.7153 56.3943C27.2064 56.3943 26.7925 55.9756 26.7925 55.4609V53.8763C26.7925 53.4933 26.5494 53.1537 26.1898 53.0341C25.958 52.9571 25.73 52.8616 25.5121 52.75C25.3865 52.6858 25.2512 52.6546 25.1169 52.6546C24.8897 52.6546 24.6654 52.7439 24.4971 52.9142L23.3898 54.0345C23.03 54.3984 22.4445 54.3986 22.0848 54.0346C22.0825 54.0324 22.0804 54.0302 22.0781 54.028C21.725 53.6634 21.7271 53.0762 22.0846 52.7146L23.1922 51.5939C23.46 51.3228 23.5255 50.9083 23.3542 50.5664C23.2447 50.3476 23.1502 50.117 23.0736 49.8812C22.9554 49.5175 22.6197 49.2717 22.2412 49.2717H20.675C20.1663 49.2717 19.7523 48.8528 19.7523 48.3381C19.7523 47.8234 20.1662 47.4047 20.675 47.4047H22.2412C22.6195 47.4047 22.9551 47.1591 23.0735 46.7955C23.1501 46.56 23.2446 46.3293 23.3545 46.1097C23.5255 45.7679 23.46 45.3535 23.1923 45.0827L22.0849 43.9621C21.7251 43.5981 21.7251 43.0057 22.0848 42.6417C22.4446 42.2781 23.0299 42.2779 23.3896 42.6417L24.4972 43.7624C24.765 44.0334 25.1746 44.0997 25.5126 43.9264C25.7293 43.8154 25.9572 43.7199 26.19 43.6425C26.5495 43.5229 26.7925 43.1833 26.7925 42.8004V41.2157C26.7925 40.701 27.2065 40.2822 27.7154 40.2822C28.224 40.2822 28.6379 40.701 28.6379 41.2157V42.8002C28.6379 43.1831 28.8809 43.5227 29.2404 43.6423C29.4724 43.7194 29.7004 43.8151 29.918 43.9265C30.2558 44.0994 30.6653 44.0335 30.9331 43.7624L32.0409 42.6417C32.4008 42.2779 32.9861 42.2777 33.3457 42.6415C33.3475 42.6435 33.3494 42.6453 33.3512 42.6472C33.7055 43.0116 33.7038 43.5998 33.3459 43.9619L32.2383 45.0825C31.9705 45.3535 31.9052 45.7679 32.0762 46.1097C32.1861 46.3293 32.2807 46.56 32.3571 46.7952C32.4753 47.1589 32.8109 47.4047 33.1894 47.4047H34.7557C35.2644 47.4047 35.6782 47.8235 35.6782 48.3383C35.6781 48.8529 35.2643 49.2717 34.7556 49.2717ZM54.696 40.8368C54.2121 40.8368 53.8199 40.44 53.8199 39.9504V29.769C53.8199 29.3629 53.4933 29.0326 53.0921 29.0326H51.4879C51.004 29.0326 50.6117 28.6358 50.6117 28.1462C50.6117 27.6566 51.004 27.2598 51.4879 27.2598H53.0921C54.4595 27.2598 55.5722 28.3854 55.5722 29.769V39.9504C55.5722 40.44 55.18 40.8368 54.696 40.8368ZM27.7154 45.4084C26.1184 45.4084 24.8192 46.7228 24.8192 48.3384C24.8192 49.9539 26.1184 51.2683 27.7154 51.2683C29.3123 51.2683 30.6115 49.9539 30.6115 48.3384C30.6115 46.7228 29.3123 45.4084 27.7154 45.4084ZM27.7154 49.4956C27.0846 49.4956 26.5715 48.9764 26.5715 48.3384C26.5715 47.7004 27.0846 47.1812 27.7154 47.1812C28.3461 47.1812 28.8592 47.7003 28.8592 48.3384C28.8592 48.9765 28.346 49.4956 27.7154 49.4956ZM47.0087 18H41.446C40.9621 18 40.5698 18.3968 40.5698 18.8864V56.1833C40.5698 56.6729 40.9621 57.0697 41.446 57.0697H47.0087C47.4926 57.0697 47.8848 56.6729 47.8848 56.1833V18.8864C47.8848 18.3968 47.4926 18 47.0087 18ZM46.1325 55.2969H42.3222V50.8534H43.5026C43.9865 50.8534 44.3787 50.4566 44.3787 49.967C44.3787 49.4774 43.9865 49.0806 43.5026 49.0806H42.3222V44.6373H43.5026C43.9865 44.6373 44.3787 44.2405 44.3787 43.7509C44.3787 43.2613 43.9865 42.8645 43.5026 42.8645H42.3222V38.4213H43.5026C43.9865 38.4213 44.3787 38.0245 44.3787 37.5349C44.3787 37.0453 43.9865 36.6485 43.5026 36.6485H42.3222V32.2052H43.5026C43.9865 32.2052 44.3787 31.8084 44.3787 31.3188C44.3787 30.8292 43.9865 30.4324 43.5026 30.4324H42.3222V25.989H43.5026C43.9865 25.989 44.3787 25.5922 44.3787 25.1026C44.3787 24.613 43.9865 24.2162 43.5026 24.2162H42.3222V19.7728H46.1325V55.2969ZM62 21.598V53.4715C62 53.9611 61.6078 54.3579 61.1238 54.3579H56.0475C55.5636 54.3579 55.1714 53.9611 55.1714 53.4715C55.1714 52.9819 55.5636 52.5851 56.0475 52.5851H60.2477V22.4844H51.085C50.601 22.4844 50.2088 22.0876 50.2088 21.598C50.2088 21.1084 50.601 20.7116 51.085 20.7116H61.1238C61.6077 20.7116 62 21.1085 62 21.598ZM52.3641 59.9565V60.1136C52.3641 60.6032 51.9718 61 51.4879 61C51.004 61 50.6117 60.6032 50.6117 60.1136V59.9565C50.6117 59.4669 51.004 59.0701 51.4879 59.0701C51.9718 59.0701 52.3641 59.4669 52.3641 59.9565ZM52.3641 31.3835V57.0843C52.3641 57.5739 51.9718 57.9707 51.4879 57.9707C51.004 57.9707 50.6117 57.5739 50.6117 57.0843V31.3835C50.6117 30.8939 51.004 30.4971 51.4879 30.4971C51.9718 30.4971 52.3641 30.8939 52.3641 31.3835ZM37.6494 20.7116C37.6494 20.7116 29.8702 20.7119 29.8523 20.7129C29.6572 20.7231 29.4791 20.7979 29.3382 20.9164C29.3381 20.9165 29.3379 20.9167 29.3377 20.9168C29.3373 20.9172 29.3369 20.9176 29.3365 20.9179C29.3361 20.9183 29.3357 20.9186 29.3353 20.9189C29.3351 20.9191 29.3349 20.9193 29.3347 20.9194C29.3342 20.9199 29.3336 20.9204 29.3331 20.9209V20.921C29.3145 20.9368 21.4367 28.9051 21.4367 28.9051C21.2855 29.0577 21.1891 29.2657 21.1799 29.4966C21.1793 29.5108 21.1792 36.9352 21.1792 36.9352C21.1792 37.4248 21.5714 37.8216 22.0554 37.8216C22.5393 37.8216 22.9315 37.4248 22.9315 36.9352V30.4192H29.8985C30.3824 30.4192 30.7746 30.0224 30.7746 29.5328V22.4844H37.6494C38.1333 22.4844 38.5256 22.0876 38.5256 21.598C38.5256 21.1084 38.1333 20.7116 37.6494 20.7116ZM29.0224 28.6464H24.1707L29.0224 23.7379V28.6464Z" fill="white"/>
</svg>
