<svg width="14" height="14" viewBox="0 0 14 14" fill="none" xmlns="http://www.w3.org/2000/svg">
<path d="M0.488571 14H10.4714C10.7429 14 10.9629 13.78 10.9629 13.5086V10.96H13.5114C13.7829 10.96 14 10.74 14 10.4714V0.488571C14 0.217143 13.78 0 13.5114 0H3.52857C3.25714 0 3.03714 0.22 3.03714 0.488571V3.03714H0.488571C0.217143 3.03714 0 3.25714 0 3.52857V13.5114C0 13.78 0.22 14 0.488571 14ZM4.01714 0.98H13.02V9.98286H4.01714V0.98ZM0.98 4.01714H3.03714V10.4714C3.03714 10.7429 3.25714 10.96 3.52857 10.96H9.98286V13.0171H0.98V4.01714Z" fill="#0B9129"/>
<path d="M6.2718 5.97166H8.02895V7.72881C8.02895 8.00024 8.24895 8.22024 8.52037 8.22024C8.7918 8.22024 9.00894 8.00024 9.00894 7.72881V5.97166H10.7661C11.0375 5.97166 11.2547 5.75166 11.2547 5.48023C11.2547 5.20881 11.0347 4.98881 10.7661 4.98881H9.00894V3.23166C9.00894 2.96023 8.78895 2.74023 8.52037 2.74023C8.24895 2.74023 8.02895 2.96023 8.02895 3.23166V4.98881H6.2718C6.00037 4.98881 5.78323 5.20881 5.78323 5.48023C5.78037 5.75166 6.00037 5.97166 6.2718 5.97166Z" fill="#0B9129"/>
</svg>
