<svg width="80" height="80" viewBox="0 0 80 80" fill="none" xmlns="http://www.w3.org/2000/svg">
<circle cx="40" cy="40" r="40" fill="#5380EA"/>
<path d="M52.4197 22.4393C49.1417 19.2073 44.8 17.4628 40.1927 17.5276C30.7943 17.6597 23.2492 25.4179 23.3736 34.8218C23.4314 39.1914 25.1389 43.3269 28.1816 46.4664C30.5495 48.9096 31.8536 52.0709 31.8536 55.3679V57.6711C31.8536 60.9077 33.9304 63.6673 36.8207 64.6907V65.1485C36.8207 66.721 38.1 68.0002 39.6724 68.0002H41.2041C42.7765 68.0002 44.0557 66.7209 44.0557 65.1485V64.6906C46.9458 63.667 49.0224 60.9076 49.0224 57.6711V55.3679C49.0224 52.0659 50.322 48.909 52.6821 46.479C55.7914 43.2773 57.5038 39.0557 57.5038 34.5919C57.5039 29.988 55.6984 25.672 52.4197 22.4393ZM42.0441 65.1485H42.0438C42.0438 65.6115 41.6672 65.9882 41.2042 65.9882H39.6725C39.2095 65.9882 38.8328 65.6115 38.8328 65.1485V65.1003C38.9871 65.1098 39.1422 65.1164 39.2991 65.1164H41.5775C41.7343 65.1164 41.8896 65.1098 42.0441 65.1003V65.1485ZM41.5772 63.1043H39.2988C37.0913 63.1043 35.1883 61.7801 34.339 59.8851H46.5371C45.6876 61.7801 43.7848 63.1043 41.5772 63.1043ZM47.0106 57.671C47.0106 57.7387 47.0079 57.806 47.0054 57.8731H33.8706C33.868 57.806 33.8654 57.7387 33.8654 57.671V56.3738H47.0105V57.671H47.0106ZM40.4382 33.7466C41.0492 33.7466 41.646 33.63 42.2039 33.4077L42.8368 34.3518C41.2699 34.7856 39.606 34.7856 38.0392 34.3518L38.6722 33.4077C39.2298 33.6302 39.8269 33.7466 40.4382 33.7466ZM39.838 31.669L40.4381 30.774L41.0382 31.669C40.8428 31.7122 40.642 31.7346 40.4384 31.7346C40.2343 31.7346 40.0334 31.7122 39.838 31.669ZM43.3889 36.2857V54.3617H41.444V36.643C42.1 36.5831 42.751 36.4633 43.3889 36.2857ZM39.4321 36.643V54.3617H37.4872V36.2857C38.1253 36.4633 38.776 36.583 39.4321 36.643ZM51.2388 45.0771C48.7522 47.6378 47.2848 50.9028 47.0458 54.3617H45.4009V34.8693C45.4009 34.6698 45.3416 34.4748 45.2304 34.3091L41.2735 28.4072C41.0867 28.1286 40.7733 27.9615 40.438 27.9615C40.1026 27.9615 39.7892 28.1286 39.6025 28.4072L35.6455 34.3091C35.5345 34.4748 35.475 34.6698 35.475 34.8693V54.3618H33.8299C33.5899 50.9071 32.1191 47.6381 29.6262 45.0661C26.9424 42.2969 25.4363 38.6492 25.3853 34.7952C25.3324 30.7966 26.8515 27.0023 29.6627 24.1109C32.4743 21.2192 36.2239 19.5957 40.221 19.5396C40.2938 19.5385 40.3666 19.5382 40.4394 19.5382C44.4221 19.5382 48.1677 21.0724 51.007 23.8723C53.899 26.7239 55.4918 30.5309 55.4918 34.592C55.492 38.5291 53.9815 42.2529 51.2388 45.0771Z" fill="white"/>
<path d="M44.2027 21.4046C43.6686 21.2522 43.1116 21.5612 42.959 22.0955C42.8062 22.6295 43.1155 23.1865 43.6497 23.3392C48.6479 24.7679 52.1387 29.3952 52.1387 34.5918C52.1387 35.1474 52.5891 35.5978 53.1448 35.5978C53.7004 35.5978 54.1508 35.1474 54.1508 34.5918C54.1507 28.5017 50.0599 23.0789 44.2027 21.4046Z" fill="white"/>
<path d="M41.1914 20.8995C40.8763 20.8823 40.5572 20.8759 40.2399 20.8805C39.6843 20.8881 39.2402 21.3447 39.2479 21.9003C39.2556 22.451 39.7045 22.8923 40.2536 22.8923C40.2583 22.8923 40.263 22.8923 40.2678 22.8922C40.5393 22.8885 40.8124 22.8938 41.0817 22.9084C41.1004 22.9095 41.1189 22.9098 41.1374 22.9098C41.6678 22.9098 42.1118 22.4946 42.141 21.9586C42.1715 21.404 41.7461 20.9299 41.1914 20.8995Z" fill="white"/>
<path d="M62.2413 33.803H60.4845C59.9289 33.803 59.4785 34.2534 59.4785 34.809C59.4785 35.3646 59.9289 35.815 60.4845 35.815H62.2413C62.797 35.815 63.2474 35.3646 63.2474 34.809C63.2473 34.2534 62.7969 33.803 62.2413 33.803Z" fill="white"/>
<path d="M20.3903 33.803H18.6352C18.0796 33.803 17.6292 34.2534 17.6292 34.809C17.6292 35.3646 18.0796 35.815 18.6352 35.815H20.3902C20.946 35.815 21.3964 35.3646 21.3964 34.809C21.3964 34.2534 20.946 33.803 20.3903 33.803Z" fill="white"/>
<path d="M60.1913 23.4045C59.9135 22.9233 59.2983 22.7585 58.8171 23.0364L57.2958 23.9146C56.8147 24.1925 56.6499 24.8077 56.9277 25.2888C57.114 25.6116 57.4521 25.792 57.7998 25.792C57.9705 25.792 58.1435 25.7485 58.3019 25.657L59.8232 24.7787C60.3043 24.5009 60.4692 23.8857 60.1913 23.4045Z" fill="white"/>
<path d="M23.9474 44.3298C23.6695 43.8486 23.0543 43.6838 22.5732 43.9616L21.0532 44.8392C20.572 45.117 20.4072 45.7322 20.685 46.2134C20.8713 46.5361 21.2095 46.7165 21.5572 46.7165C21.7278 46.7165 21.9008 46.6731 22.0592 46.5815L23.5792 45.704C24.0602 45.4262 24.2252 44.8109 23.9474 44.3298Z" fill="white"/>
<path d="M51.8426 15.056C51.3614 14.7782 50.7462 14.943 50.4684 15.4241L49.59 16.9454C49.3122 17.4265 49.4771 18.0417 49.9582 18.3196C50.1166 18.4111 50.2896 18.4546 50.4602 18.4546C50.8079 18.4546 51.146 18.2742 51.3324 17.9515L52.2108 16.4302C52.4886 15.949 52.3238 15.3338 51.8426 15.056Z" fill="white"/>
<path d="M40.4382 12C39.8825 12 39.4321 12.4504 39.4321 13.006V14.7628C39.4321 15.3184 39.8825 15.7689 40.4382 15.7689C40.9938 15.7689 41.4442 15.3184 41.4442 14.7628V13.006C41.4442 12.4504 40.9937 12 40.4382 12Z" fill="white"/>
<path d="M31.2862 16.9456L30.4078 15.4243C30.13 14.9431 29.5145 14.7783 29.0336 15.0561C28.5525 15.3339 28.3877 15.9492 28.6655 16.4303L29.5439 17.9516C29.7301 18.2744 30.0683 18.4547 30.416 18.4547C30.5867 18.4547 30.7598 18.4113 30.9181 18.3198C31.3992 18.0419 31.564 17.4267 31.2862 16.9456Z" fill="white"/>
<path d="M23.5806 23.9147L22.0593 23.0364C21.5781 22.7585 20.9629 22.9234 20.6851 23.4045C20.4071 23.8857 20.5721 24.5009 21.0532 24.7787L22.5745 25.657C22.7329 25.7485 22.9059 25.792 23.0766 25.792C23.4243 25.792 23.7623 25.6116 23.9487 25.2889C24.2265 24.8077 24.0617 24.1924 23.5806 23.9147Z" fill="white"/>
<path d="M59.8231 44.8392L58.3031 43.9617C57.822 43.6838 57.2066 43.8487 56.9289 44.3298C56.6511 44.811 56.8159 45.4262 57.2971 45.704L58.8171 46.5815C58.9754 46.673 59.1485 46.7165 59.3191 46.7165C59.6668 46.7165 60.0049 46.5361 60.1912 46.2134C60.4692 45.7322 60.3043 45.1169 59.8231 44.8392Z" fill="white"/>
</svg>
