<svg width="80" height="80" viewBox="0 0 80 80" fill="none" xmlns="http://www.w3.org/2000/svg">
<circle cx="40" cy="40" r="40" fill="#5380EA"/>
<path d="M39.9809 54.9434C38.2743 54.9434 36.8866 56.3311 36.8866 58.0377C36.8866 59.7443 38.2743 61.132 39.9809 61.132C41.6875 61.132 43.0753 59.7443 43.0753 58.0377C43.0753 56.3311 41.6875 54.9434 39.9809 54.9434ZM39.9809 59.5849C39.1277 59.5849 38.4338 58.8909 38.4338 58.0377C38.4338 57.1845 39.1277 56.4905 39.9809 56.4905C40.8341 56.4905 41.5281 57.1845 41.5281 58.0377C41.5281 58.8909 40.8343 59.5849 39.9809 59.5849Z" fill="white"/>
<path d="M62.8529 47.6926C62.1589 47.2113 61.2709 47.1022 60.4788 47.397L60.3898 47.4303L52.0219 26.89L30.917 34.4278L26.5726 24H18.3207C17.0412 24 16 25.0412 16 26.3207C16 27.6002 17.0412 28.6415 18.3207 28.6415H23.2252L34.1637 54.2224C33.442 55.3193 33.0189 56.629 33.0189 58.0377C33.0189 61.877 36.1426 65.0001 39.981 65.0001C43.8195 65.0001 46.9432 61.8772 46.9432 58.0377C46.9432 57.9611 46.934 57.8861 46.9317 57.8103L62.2649 52.2351C63.2798 51.8652 63.9621 50.892 63.9621 49.8114C63.9622 48.9658 63.5475 48.1745 62.8529 47.6926ZM41.9715 32.1225L44.3634 37.5043L41.9329 38.4767L39.5008 33.0051L41.9715 32.1225ZM38.0394 33.5266L41.1237 40.4665L46.429 38.3445L43.4322 31.6012L51.1479 28.8457L58.941 47.9741L44.9848 53.2082C43.7177 51.8954 41.9446 51.0755 39.9812 51.0755C39.2843 51.0755 38.6128 51.1815 37.9776 51.3726L31.5126 35.8573L38.0394 33.5266ZM18.3207 27.0943C17.8944 27.0943 17.5472 26.7478 17.5472 26.3207C17.5472 25.8936 17.8946 25.547 18.3207 25.547H25.5405L36.5555 51.9835C36.096 52.2443 35.6721 52.5575 35.2852 52.9118L24.2465 27.0943H18.3207ZM39.981 63.4527C36.995 63.4527 34.566 61.023 34.566 58.0376C34.566 55.0521 36.9951 52.6224 39.981 52.6224C42.9669 52.6224 45.396 55.0521 45.396 58.0376C45.396 61.023 42.9671 63.4527 39.981 63.4527ZM61.7366 50.7806L46.7021 56.2476C46.5358 55.6241 46.2859 55.0355 45.9633 54.4932L61.0219 48.846C61.3437 48.7245 61.6888 48.7679 61.9718 48.9636C62.2533 49.1594 62.4151 49.4688 62.4151 49.8114C62.4151 50.2438 62.1419 50.6329 61.7366 50.7806Z" fill="white"/>
</svg>
