<svg width="16" height="21" viewBox="0 0 16 21" fill="none" xmlns="http://www.w3.org/2000/svg">
<path d="M7.50122 0C3.36507 0 0 3.365 0 7.50122C0 11.5057 6.83846 19.7758 7.12956 20.1259C7.2214 20.2363 7.35757 20.3002 7.50122 20.3002C7.6448 20.3002 7.78104 20.2363 7.87287 20.1259C8.16403 19.7758 15.0024 11.5057 15.0024 7.50122C15.0024 3.365 11.6374 0 7.50122 0ZM7.50122 19.0498C6.89485 18.2927 5.63501 16.6795 4.38832 14.8353C2.14989 11.5242 0.966676 8.98809 0.966676 7.50122C0.966676 3.89803 3.89809 0.966676 7.50122 0.966676C11.1043 0.966676 14.0358 3.89803 14.0358 7.50122C14.0358 8.98803 12.8526 11.5241 10.6141 14.8353C9.36735 16.6795 8.10758 18.2927 7.50122 19.0498Z" fill="#515151"/>
<path d="M9.96048 13.7883C9.7393 13.6389 9.43879 13.6971 9.28941 13.9183C8.63716 14.8838 7.90648 15.8957 7.11767 16.9259C6.9554 17.1379 6.99562 17.4413 7.20758 17.6035C7.29522 17.6707 7.39853 17.7032 7.50106 17.7032C7.64632 17.7032 7.79003 17.6379 7.88515 17.5136C8.68556 16.4683 9.42752 15.4407 10.0904 14.4594C10.2398 14.2383 10.1817 13.9378 9.96048 13.7883Z" fill="#515151"/>
<path d="M7.50121 3.7052C5.31582 3.7052 3.53784 5.48318 3.53784 7.66857C3.53784 9.85397 5.31582 11.6319 7.50121 11.6319C9.68661 11.6319 11.4646 9.85397 11.4646 7.66857C11.4646 5.48318 9.68661 3.7052 7.50121 3.7052ZM7.50121 10.6653C5.84884 10.6653 4.50452 9.32095 4.50452 7.66857C4.50452 6.0162 5.84884 4.67188 7.50121 4.67188C9.15365 4.67188 10.4979 6.0162 10.4979 7.66857C10.4979 9.32095 9.15365 10.6653 7.50121 10.6653Z" fill="#515151"/>
</svg>
