<svg width="80" height="80" viewBox="0 0 80 80" fill="none" xmlns="http://www.w3.org/2000/svg">
<g clip-path="url(#clip0_1_697)">
<path fill-rule="evenodd" clip-rule="evenodd" d="M40 80C17.9075 80 0 62.0925 0 40C0 17.9075 17.9075 0 40 0C62.0925 0 80 17.9075 80 40C80 62.0925 62.0925 80 40 80ZM62.8725 25.7375C62.8185 25.707 62.7652 25.6753 62.7125 25.6425L62.7075 25.64L62.7025 25.6375L56.035 21.7575L51.7975 19.29L47.4575 16.765C45.1325 15.415 42.7325 14.015 40.365 12.6425L40.125 12.5L39.8675 12.6C39.6387 12.6863 39.4171 12.7908 39.205 12.9125L39.18 12.9275L29.255 18.815L24.91 21.39C22.2875 22.945 19.575 24.5525 16.925 26.135C16.275 26.4475 16.2925 27.14 16.3 27.475L16.3025 27.555V27.705C16.2925 33.785 16.285 40.0725 16.27 46.2625L16.25 53.1425C16.215 53.6525 16.45 54.1 16.845 54.2925C21.575 57.0125 26.375 59.7825 31.015 62.46L39.37 67.28C39.5724 67.4157 39.8089 67.492 40.0525 67.5C40.2458 67.5007 40.4339 67.4375 40.5875 67.32L52.7 60.25L57.25 57.595C59.135 56.4925 61.0875 55.35 63 54.2375C63.2249 54.1376 63.4134 53.9706 63.5396 53.7593C63.6658 53.548 63.7236 53.3029 63.705 53.0575L63.7425 27.015C63.8075 26.24 63.155 25.89 62.87 25.74L62.8725 25.7375ZM40.95 64.9125L40.965 53.805L45.075 51.4175C46.2125 50.7525 47.375 50.0775 48.5 49.425L51.61 47.615L51.6125 47.6125L51.6775 47.57C51.8576 47.472 52.0144 47.3364 52.1375 47.1725L52.25 47.0175V46.8275C52.23 44.4525 52.225 41.8125 52.2325 38.515L52.235 36.985V34.075L61.86 28.445L61.845 38.1075L61.8225 52.73C57.3317 55.3463 52.8425 57.9655 48.355 60.5875L40.95 64.9125ZM30.46 33.525L40.015 27.915L49.4725 33.495L40.03 39.015L36.77 37.1425C34.6682 35.934 32.5649 34.7282 30.46 33.525V33.525ZM29.485 35.15L39.0975 40.6625L39.0825 51.6125L29.6625 46.1225L29.485 35.15ZM18.185 28.665L27.585 34.065L27.79 46.46C27.765 46.9475 28.005 47.3925 28.3925 47.575C29.73 48.3575 31.0925 49.15 32.41 49.915L34.98 51.4125L39.08 53.8L39.0725 64.925L18.1375 52.85L18.185 28.665ZM60.92 26.8L51.345 32.395L40.6575 26.0925C40.4752 25.9645 40.259 25.8938 40.0363 25.8893C39.8137 25.8849 39.5947 25.9469 39.4075 26.0675L28.575 32.425L19.125 27.015L25.69 23.1225C30.09 20.51 34.7825 17.73 40.03 14.63C44.755 17.395 49.33 20.055 53.19 22.295C54.54 23.085 55.915 23.885 57.245 24.6575L60.9175 26.7975L60.92 26.8ZM40.965 51.6175L40.9725 40.6625L50.445 35.1275V46.1075C47.2829 47.9406 44.1229 49.7773 40.965 51.6175V51.6175ZM53.7825 49.635C53.9494 49.5953 54.1042 49.5159 54.2339 49.4036C54.3636 49.2913 54.4643 49.1495 54.5275 48.99C54.6197 48.7835 54.6504 48.5548 54.6158 48.3313C54.5812 48.1077 54.4828 47.899 54.3325 47.73L54.33 47.725C54.2271 47.6069 54.1004 47.5117 53.9583 47.4458C53.8161 47.3799 53.6617 47.3447 53.505 47.3425C53.2415 47.346 52.9877 47.4422 52.788 47.614C52.5882 47.7859 52.4553 48.0225 52.4125 48.2825C52.3719 48.4821 52.3842 48.6889 52.4482 48.8824C52.5122 49.0758 52.6258 49.2491 52.7775 49.385C52.8708 49.4794 52.9823 49.554 53.1051 49.6043C53.228 49.6545 53.3598 49.6794 53.4925 49.6775C53.5907 49.6779 53.6885 49.6636 53.7825 49.635V49.635ZM58.9425 53.155C59.0906 53.2855 59.2734 53.3701 59.4687 53.3985C59.664 53.4269 59.8634 53.3979 60.0425 53.315C60.2275 53.2376 60.3888 53.1127 60.51 52.9529C60.6312 52.7931 60.7079 52.604 60.7325 52.405C60.7674 52.1862 60.7382 51.9619 60.6486 51.7592C60.5591 51.5565 60.4128 51.384 60.2275 51.2625C60.0494 51.1378 59.8374 51.0707 59.62 51.07C59.4238 51.0704 59.2318 51.1277 59.0675 51.235C58.9043 51.3359 58.7684 51.4752 58.6717 51.6409C58.5749 51.8065 58.5202 51.9933 58.5125 52.185C58.4989 52.3696 58.531 52.5547 58.606 52.7239C58.681 52.8931 58.7966 53.0412 58.9425 53.155V53.155ZM25.97 47.355C25.7089 47.3603 25.4575 47.4547 25.2575 47.6224C25.0574 47.7902 24.9207 48.0214 24.87 48.2775C24.8327 48.441 24.832 48.6108 24.8679 48.7746C24.9038 48.9385 24.9754 49.0924 25.0776 49.2254C25.1798 49.3583 25.31 49.4672 25.4591 49.544C25.6082 49.6209 25.7724 49.6639 25.94 49.67C26.025 49.67 26.115 49.6575 26.195 49.6375C26.3687 49.5999 26.5307 49.5209 26.6674 49.4073C26.804 49.2937 26.9113 49.1489 26.98 48.985C27.0715 48.7819 27.102 48.5566 27.0678 48.3364C27.0336 48.1163 26.9362 47.9108 26.7875 47.745C26.6882 47.624 26.5634 47.5264 26.4222 47.459C26.2809 47.3916 26.1265 47.3561 25.97 47.355V47.355ZM55.86 51.295C56.0096 51.4158 56.1882 51.4956 56.378 51.5263C56.5679 51.5569 56.7624 51.5376 56.9425 51.47C57.1222 51.4052 57.2818 51.2945 57.4055 51.1489C57.5292 51.0032 57.6126 50.8278 57.6475 50.64C57.6972 50.439 57.6912 50.2282 57.6299 50.0304C57.5687 49.8326 57.4546 49.6552 57.3 49.5175C57.098 49.3242 56.8295 49.2159 56.55 49.215C56.2825 49.2247 56.0269 49.3274 55.827 49.5054C55.6271 49.6833 55.4955 49.9255 55.455 50.19C55.4194 50.3935 55.4381 50.6029 55.5092 50.7969C55.5803 50.9909 55.7013 51.1627 55.86 51.295V51.295ZM23.5975 49.4875C23.4061 49.3125 23.1568 49.2146 22.8975 49.2125C22.7651 49.213 22.6342 49.2402 22.5125 49.2925C22.3108 49.3686 22.1353 49.5013 22.0071 49.6747C21.8789 49.8481 21.8036 50.0548 21.79 50.27C21.75 50.7325 21.965 51.17 22.3325 51.385C22.4987 51.4902 22.6908 51.5473 22.8875 51.55C23.0519 51.548 23.214 51.5105 23.3625 51.44H23.365C23.5325 51.3655 23.6786 51.2499 23.7896 51.1039C23.9006 50.958 23.9729 50.7864 24 50.605C24.0396 50.3998 24.0231 50.1876 23.9522 49.991C23.8814 49.7943 23.7589 49.6204 23.5975 49.4875V49.4875ZM39.8725 15.4175C39.8104 15.4179 39.7485 15.4238 39.6875 15.435C39.4983 15.4606 39.3186 15.5333 39.1649 15.6465C39.0111 15.7596 38.8882 15.9095 38.8075 16.0825V16.0875C38.7222 16.2617 38.6833 16.4549 38.6947 16.6485C38.7061 16.8422 38.7673 17.0295 38.8725 17.1925C38.9973 17.3865 39.1774 17.5385 39.3896 17.629C39.6017 17.7194 39.8361 17.7442 40.0625 17.7H40.0675L40.075 17.6975C40.295 17.6665 40.5003 17.5693 40.6637 17.4188C40.8272 17.2683 40.941 17.0717 40.99 16.855C41.0398 16.6718 41.0414 16.4788 40.9945 16.2948C40.9476 16.1108 40.8539 15.942 40.7225 15.805C40.6162 15.684 40.4855 15.587 40.339 15.5202C40.1925 15.4534 40.0335 15.4184 39.8725 15.4175V15.4175ZM20.375 51.225C20.212 51.1266 20.0253 51.0747 19.835 51.0747C19.6447 51.0747 19.458 51.1266 19.295 51.225C19.1163 51.329 18.9685 51.4789 18.867 51.659C18.7655 51.8392 18.7139 52.0432 18.7175 52.25C18.7175 52.685 18.9475 53.0825 19.3075 53.27C19.4575 53.3575 19.6325 53.405 19.8175 53.405C20.0344 53.403 20.2461 53.3388 20.4275 53.22C20.5982 53.1122 20.737 52.9609 20.8298 52.7816C20.9225 52.6023 20.9657 52.4016 20.955 52.2C20.9544 52.0005 20.9003 51.8047 20.7983 51.6332C20.6963 51.4617 20.5501 51.3207 20.375 51.225V51.225ZM40.475 23.0125C40.2821 22.8877 40.0573 22.8208 39.8275 22.82C39.6292 22.8193 39.4343 22.8711 39.2625 22.97C39.095 23.059 38.9533 23.1897 38.8512 23.3496C38.7492 23.5095 38.6902 23.6931 38.68 23.8825C38.6619 24.073 38.6933 24.265 38.7713 24.4398C38.8493 24.6146 38.9711 24.7662 39.125 24.88C39.325 25.0375 39.5675 25.12 39.835 25.12C40.0059 25.1184 40.1745 25.0809 40.33 25.01H40.3325C40.5231 24.9308 40.6878 24.7998 40.808 24.632C40.9281 24.4641 40.999 24.266 41.0125 24.06C41.0266 23.8527 40.9841 23.6454 40.8894 23.4605C40.7947 23.2755 40.6514 23.1198 40.475 23.01V23.0125ZM39.05 21.1175C39.2625 21.3175 39.53 21.4225 39.825 21.4225C39.9976 21.4215 40.168 21.384 40.325 21.3125C40.5272 21.2275 40.7001 21.0851 40.8223 20.903C40.9445 20.7208 41.0106 20.5068 41.0125 20.2875C41.0188 20.0791 40.967 19.873 40.8628 19.6924C40.7586 19.5118 40.6061 19.3638 40.4225 19.265C40.2432 19.1668 40.042 19.1152 39.8375 19.115C39.6208 19.113 39.4084 19.1757 39.2275 19.295C39.0745 19.3892 38.9455 19.5178 38.8509 19.6705C38.7563 19.8233 38.6986 19.996 38.6825 20.175V20.1825C38.6658 20.3565 38.6907 20.532 38.755 20.6945C38.8193 20.8571 38.9213 21.002 39.0525 21.1175H39.05Z" fill="#5380EA"/>
</g>
<defs>
<clipPath id="clip0_1_697">
<rect width="80" height="80" fill="white"/>
</clipPath>
</defs>
</svg>
