<svg width="500" height="500" viewBox="0 0 500 500" fill="none" xmlns="http://www.w3.org/2000/svg">
<path d="M86.2798 447.6C-4.14015 395.4 -4.14015 310.76 86.2798 258.56C176.7 206.36 323.29 206.36 413.71 258.56C504.13 310.76 504.13 395.4 413.71 447.6C323.29 499.8 176.7 499.81 86.2798 447.6Z" fill="#F5F5F5"/>
<path d="M158.64 450.12C197.874 450.12 229.68 431.759 229.68 409.11C229.68 386.461 197.874 368.1 158.64 368.1C119.405 368.1 87.5996 386.461 87.5996 409.11C87.5996 431.759 119.405 450.12 158.64 450.12Z" fill="#E0E0E0"/>
<path d="M322.853 389.965C372.117 363.397 401.335 321.986 388.113 297.471C374.892 272.956 324.238 274.62 274.975 301.188C225.711 327.757 196.493 369.168 209.715 393.683C222.936 418.198 273.59 416.533 322.853 389.965Z" fill="#E0E0E0"/>
<path d="M371.85 331.71C381.7 319.97 397.13 312.31 414.48 307.8C431.61 303.34 434.68 292.8 423.33 289.38C410.46 285.5 394.4 292.63 384.04 302.54C365.99 319.81 363.73 333.03 363.73 333.03L371.85 331.71Z" fill="#305B6F"/>
<path d="M366.781 331.03C366.711 331.03 366.631 331.01 366.561 330.98C366.311 330.86 366.211 330.56 366.331 330.31C380.951 300.31 413.301 292.93 421.171 293.49C421.451 293.51 421.651 293.75 421.631 294.03C421.611 294.31 421.351 294.51 421.091 294.49C413.411 293.9 381.621 301.22 367.221 330.75C367.141 330.92 366.961 331.03 366.781 331.03Z" fill="#305B6F"/>
<path d="M363.73 334.83C363.73 336.95 366.03 338.24 367.86 337.17C377.02 331.84 390.38 328.89 412.01 335.04C423.51 338.31 429.17 336.12 431.59 331.44C434.28 326.24 428.58 321.21 422.08 318.84C399.95 310.75 379.98 316.27 363.73 332.41V334.83Z" fill="#305B6F"/>
<path d="M364.99 335.26C364.85 335.26 364.72 335.2 364.62 335.09C364.44 334.88 364.45 334.57 364.66 334.38C383.77 317.3 413.37 320.63 424.57 327.29C424.81 327.43 424.89 327.74 424.74 327.98C424.6 328.22 424.29 328.29 424.05 328.15C413.07 321.62 384.06 318.38 365.32 335.13C365.22 335.22 365.1 335.26 364.99 335.26Z" fill="white"/>
<path d="M149.92 374.65C141.52 361.83 127.1 352.41 110.41 345.88C93.9203 339.43 92.1203 328.6 103.8 326.55C117.04 324.22 132.15 333.19 141.26 344.25C157.15 363.53 157.83 376.92 157.83 376.92L149.92 374.65Z" fill="#305B6F"/>
<path d="M155.041 374.57C155.111 374.58 155.191 374.57 155.261 374.55C155.521 374.46 155.661 374.17 155.571 373.91C144.591 342.4 113.331 331.25 105.461 330.88C105.181 330.87 104.951 331.08 104.941 331.36C104.931 331.64 105.161 331.87 105.421 331.88C113.121 332.2 143.821 343.22 154.631 374.24C154.691 374.43 154.851 374.55 155.041 374.57Z" fill="white"/>
<path d="M157.9 376.31C157.53 379.4 154.03 381.01 151.45 379.27C142.97 373.59 130.34 369.91 109.65 373.22C97.8504 375.11 92.4904 372.27 90.6304 367.34C88.5704 361.86 94.8304 357.54 101.56 355.95C124.49 350.54 143.67 358.38 157.9 376.31Z" fill="#305B6F"/>
<path d="M156.321 378.99C156.461 379.01 156.601 378.97 156.711 378.87C156.921 378.69 156.941 378.37 156.751 378.16C139.791 358.95 110.001 358.76 98.0908 364.05C97.8408 364.16 97.7208 364.46 97.8408 364.71C97.9508 364.96 98.2508 365.08 98.5008 364.96C110.171 359.78 139.371 359.97 156.001 378.82C156.081 378.92 156.201 378.98 156.321 378.99Z" fill="white"/>
<path d="M380.82 146.17L380.67 146.08C380.66 146.08 380.66 146.07 380.65 146.07L342.53 124.13C342.52 124.12 342.51 124.12 342.49 124.11L342.27 124V124.01C324.46 115.03 300.7 117.72 275.15 134.25C223.81 167.45 184.68 243.87 187.76 304.93C189.3 335.37 201.03 356.24 218.77 365.41V365.42L218.93 365.5C218.94 365.5 218.94 365.51 218.95 365.51L257.08 387.46C257.09 387.46 257.09 387.47 257.1 387.47L257.29 387.57V387.56C275.1 396.57 298.88 393.88 324.46 377.35C375.8 344.15 414.93 267.73 411.85 206.67C410.3 176.22 398.56 155.35 380.82 146.17Z" fill="#AAAA60"/>
<path d="M255.77 386.76L218.95 365.5C218.92 365.5 218.92 365.5 218.92 365.5L218.75 365.4C201.02 356.2 189.29 335.33 187.76 304.93C186.39 277.7 193.42 247.43 206.15 219.31L206.41 218.69L244.29 241.25C231.53 269.36 224.52 299.63 225.89 326.87C227.4 356.66 238.67 377.28 255.77 386.76Z" fill="#7F7E46"/>
<path d="M324.45 377.34C375.79 344.14 414.92 267.72 411.83 206.66C408.75 145.6 364.63 123.01 313.29 156.21C261.95 189.41 222.82 265.83 225.9 326.89C228.99 387.95 273.11 410.54 324.45 377.34Z" fill="#BFBB2B"/>
<path d="M367.93 141.43L303.58 273.97L289.73 258.96C285.46 254.32 279.37 251.66 273.02 251.66C267.28 251.66 261.79 253.8 257.56 257.69C248.35 266.2 247.78 280.63 256.28 289.85L292.77 329.37C296.81 333.75 302.31 336.33 308.26 336.65C308.68 336.67 309.1 336.68 309.52 336.68C310.61 336.68 311.71 336.6 312.82 336.44C320.28 335.33 326.7 330.63 329.97 323.86L403.77 171.85C396.23 155.02 383.63 144.54 367.93 141.43Z" fill="#37474F"/>
<path d="M420.19 97.77C419.79 97.54 419.38 97.32 418.95 97.12C409.13 92.37 397.27 96.47 392.53 106.26L310.64 274.92L305.99 269.88C304.6 268.38 303.04 267.14 301.35 266.17C298.91 264.77 288.53 258.76 286.85 257.79C279.57 253.59 270.08 254.38 263.54 260.39C255.54 267.78 255.05 280.31 262.43 288.31L298.92 327.84C300.31 329.34 301.9 330.6 303.63 331.59C306.01 332.95 316.35 338.94 318.05 339.92C320.72 341.47 323.73 342.38 326.9 342.55C328.2 342.62 329.51 342.57 330.86 342.38C337.34 341.42 342.91 337.33 345.75 331.46L442.62 131.93C447.17 122.54 443.62 111.29 434.73 106.17C434.32 105.93 422.77 99.26 420.19 97.77Z" fill="#305B6F"/>
<path opacity="0.15" d="M318.04 339.92C316.35 338.94 306.01 332.94 303.62 331.59C301.89 330.6 300.3 329.35 298.91 327.85L262.42 288.33C260.76 286.52 259.51 284.47 258.65 282.32L273.16 290.69C274.02 292.85 275.28 294.9 276.95 296.71L313.44 336.23C314.8 337.69 316.35 338.93 318.04 339.92Z" fill="black"/>
<path opacity="0.15" d="M411.63 108.56C409.77 110.22 408.2 112.27 407.05 114.64L322.83 288.12L310.65 274.92L392.53 106.26C393.68 103.88 395.26 101.84 397.12 100.18L411.63 108.56Z" fill="black"/>
<path d="M433.47 105.5C423.65 100.75 411.79 104.85 407.05 114.64L322.83 288.12L305.99 269.88C298.63 261.89 286.11 261.38 278.06 268.78C270.06 276.17 269.57 288.7 276.95 296.71L313.44 336.24C316.94 340.04 321.72 342.28 326.89 342.56C328.19 342.63 329.5 342.58 330.85 342.39C337.33 341.43 342.9 337.34 345.74 331.47L442.61 131.94C447.37 122.1 443.27 110.25 433.47 105.5Z" fill="#367287"/>
<path d="M157.23 124.99C149.6 124.99 144.38 126.98 138.96 134.69C133.99 141.77 120.32 165.37 120.32 165.37C120.32 165.37 110.35 144.86 109.32 140.76C108.28 136.67 108.38 134.85 109.36 133.07C110.57 130.88 111.65 128.96 111.89 126.03C112.28 121.12 113.48 116.91 112.38 116.77C109.33 116.6 109.21 120.51 107.61 122.83C107.04 123.66 105.17 123.78 104.54 122.49C103.87 121.12 104.23 118.87 103.9 117.25C104.05 115.85 104.17 115.4 104.33 114.57C105.19 114.77 106.44 114.79 107.83 114.67C109.15 116.74 110.05 117.61 111.89 116.77C112.13 116.38 111.1 113.73 109.9 111.81C109.71 111.51 109.42 111.28 109.08 111.18C107.23 110.67 105.14 110.55 102.3 110.99C101.96 111.04 101.62 111.19 101.43 111.47C100.37 113.04 99.74 114.63 99.48 115.44C99.34 115.87 98.95 115.86 98.85 115.49C97.87 110.66 97.86 103.8 97.86 100.59C97.86 98.06 94.16 97.67 94.03 101.29C93.9 105 93.8 111.86 94.28 115.86C94.34 116.3 93.84 116.51 93.67 116.03C93.03 114.31 91.46 109.15 90.8 100.23C90.62 97.83 86.74 97.44 86.77 100.81C86.85 110.05 88.99 118.57 88.99 118.57C89.1 118.99 88.72 119.36 88.43 118.88C87.14 116.77 85.11 111.53 84.08 107.92C83.26 105.03 79.39 105.76 80.07 109.37C81.28 115.84 83.2 124.03 86.06 129.87C89.12 136.12 91.77 139.25 93.28 144.16C94.8 149.07 101.09 176.88 107.82 187.72C113.09 196.21 119.12 195.43 125.61 190.95C132.1 186.47 155.29 154.16 155.29 154.16L157.23 124.99Z" fill="#D8D5A4"/>
<path d="M120.32 165.37C120.32 165.37 123.57 170.89 124.07 175.29C124.07 175.29 125.64 168.98 121.78 162.87L120.32 165.37Z" fill="#A09C70"/>
<path d="M158.85 125.01C154.97 124.61 150.15 124.48 144.76 127.86C139.37 131.25 137.5 135.98 134.89 140.1C132.28 144.23 123.26 158.86 123.26 158.86C123.26 158.86 126.57 172.75 139.74 175.61L159.45 148.87L158.85 125.01Z" fill="#DBD614"/>
<path d="M176.52 369.23C177.48 369.11 178.84 372.51 178.86 373.63C178.88 374.74 177.77 377.13 176.29 379.37C174.81 381.61 172.77 384.38 171.44 388C170.31 391.08 169.27 393.1 166.12 397.13C162.62 401.62 154.4 409.14 141.92 405.87C138.87 405.07 137.35 404.11 136.25 403C135.32 402.07 134.88 400.55 135.38 399.18L176.52 369.23Z" fill="#263238"/>
<path d="M152.009 365.33C151.999 365.37 151.989 365.4 151.979 365.44C151.759 366.36 151.949 367.32 152.059 368.25C152.469 371.53 152.029 374.92 150.799 377.99C149.969 380.05 148.789 381.97 147.329 383.65C145.839 385.35 143.399 387.15 141.499 388.37C135.179 392.41 134.499 395.1 135.389 399.18C137.499 403.93 151.839 406.82 160.079 399.75C163.299 396.99 165.739 394.56 167.919 389.08C169.449 385.23 170.599 383.05 172.079 380.28C173.679 377.28 176.699 373.9 176.789 370.81C176.839 369.11 175.159 365.95 173.519 363.35C172.019 360.96 170.479 358.69 169.129 358.96L169.499 360.31C168.379 361.48 166.749 361.91 165.759 363.28C164.539 364.97 164.589 367.24 163.829 369.18C163.759 369.37 163.659 369.57 163.459 369.63C163.259 369.69 163.029 369.55 162.929 369.36C162.829 369.17 162.819 368.95 162.809 368.74C162.779 367.77 162.749 366.8 162.719 365.83C162.699 365.27 162.669 364.67 162.299 364.25C161.519 363.37 159.599 363.47 158.529 363.43C157.069 363.37 155.669 363.6 154.219 363.69C153.679 363.72 153.279 363.69 152.819 364.06C152.429 364.37 152.139 364.84 152.009 365.33Z" fill="#37474F"/>
<path d="M130.82 307.19C134.15 318.14 149.72 356.04 150.65 358.32C151.59 360.6 153.75 365.84 153.75 365.84C153.75 365.84 156.29 366.89 160.07 366.1C160.4 369.73 160.94 375.42 161.16 378.3C161.23 381.63 161.52 385.74 160.81 389.03C160.2 391.83 159.49 394.77 158.96 397.58C158.73 398.82 158.49 400.07 158.31 401.32C158.11 402.64 157.98 404.07 158.62 405.25C158.92 405.8 159.37 406.25 159.85 406.65C162.01 408.43 164.91 409.18 167.7 408.95C169.17 408.83 170.66 408.43 171.86 407.57C174.28 405.84 175.13 402.83 176.36 400.27C177.7 397.49 177.26 397.19 177.38 394.22C177.46 392.14 178.04 386.86 178.87 381.34C179.7 375.82 183.28 356.42 185 337.09C186.19 323.71 185 311.29 185 311.29C198.66 274.18 204.74 252.11 206.53 239.79C208.34 227.27 207.47 222.81 207.24 215.61L140.81 217.21C135.47 251.56 126.35 292.51 130.82 307.19Z" fill="#AAAA60"/>
<path d="M129.78 279.79C131.15 267.17 140.59 218.66 140.59 218.66H207.51C207.51 218.66 207.93 227.97 207.81 232.25C207.69 236.53 206.32 244.35 203.92 254.23C201.52 264.11 192.67 292.12 190.96 296.25C189.25 300.38 185.94 312.32 185.94 312.32C187.58 334.76 183.31 354.9 180.11 381.67C180.11 381.67 179.18 385.29 169.7 384.57C160.48 383.87 158.62 380.48 158.62 380.48L158 357.38C158 357.38 152.96 358.93 150 358.22C150 358.22 130.19 309.32 129.23 306.37C128.29 303.42 128.41 292.41 129.78 279.79Z" fill="#DBD614"/>
<path opacity="0.2" d="M158.17 250.28C148.69 241.73 146.59 234.94 146.59 234.94C153.65 243.28 163.28 248.31 163.28 248.31C163.28 248.31 154.28 295.83 154.94 305.6C155.59 315.37 158.03 357.38 158.03 357.38C158.05 357.78 151.65 312.96 151.47 309.37C150.98 299.93 158.17 250.28 158.17 250.28Z" fill="#5B5A2F"/>
<path d="M179.03 405.46C179.96 405.73 179.85 408.51 179.43 409.54C179.01 410.57 177.35 412.54 175.11 414.02C172.87 415.5 170.78 417.57 168.76 420.86C167.32 423.2 163.7 427.64 158.81 430.57C153.92 433.5 146.68 434.53 141.31 433C135.03 431.22 134.45 429.68 134.51 427.31L179.03 405.46Z" fill="#263238"/>
<path d="M159.6 390.92C157.95 398.96 155.08 404.79 148.43 409.74C143.14 413.67 139.29 415.67 135.07 419.19C133.27 420.69 133.12 423.88 134.5 427.32C137.35 429.61 141.41 430.92 146.87 430.92C152.96 430.91 155.31 429.84 158.81 427.44C160.82 426.06 162.22 424.8 163.59 423.43C166.52 420.49 168.56 416.87 170.67 414.54C172.78 412.21 177.36 409.83 178.65 407.02C179.36 405.48 179.06 401.9 178.58 398.86C178.14 396.07 179 391.17 177.65 390.89C177.68 390.9 177.47 392.89 177.47 392.89C177.36 393.34 177.08 393.57 176.13 393.9C175.5 394.12 174.21 394.09 173.56 393.98C172.79 393.85 172.35 393.86 171.84 394.47C170.94 395.53 170.7 397.03 169.54 397.91C169.46 397.97 169.37 398.03 169.27 398.05C169.17 398.07 169.06 398.05 168.99 397.97C168.92 397.88 168.93 397.76 168.94 397.64C169.05 396.64 169.16 395.65 169.27 394.65C169.3 394.35 169.34 394.04 169.29 393.74C169.21 393.18 168.79 392.71 168.32 392.43C167.5 391.93 166.55 391.57 165.63 391.31C164.66 391.04 163.65 390.89 162.65 390.8C161.65 390.7 160.6 390.68 159.6 390.92Z" fill="#455A64"/>
<path d="M201.47 127.87C201.47 127.87 204.23 131.66 206.43 139.45C206.43 139.45 210.63 157.26 210.63 178.37C210.63 196.03 208.25 224.67 208.25 224.67C187.74 234.95 154.66 228.87 140.11 218.85C140.7 215.67 141.2 198.95 142.34 187.92C143.12 169 143.75 159.08 143.89 150.67C144.16 133.85 152.53 125.16 158.85 125.03L174.91 125.28L201.47 127.87Z" fill="#305B6F"/>
<path d="M206.53 219.47C203.48 221.98 197.49 226.8 196.4 229.23C195.15 232.01 194.37 236.2 193.55 237.82C192.73 239.44 193.99 240.19 195.74 239.63C197.5 239.07 198.55 237.56 199.91 233.93C201.27 230.29 205.05 227.44 205.05 227.44L206.53 219.47Z" fill="#D8D5A4"/>
<path d="M195.39 252.2C196.12 253.61 197.82 253.61 199.4 253.74C201.65 253.92 202.92 253.76 205.07 253.1C207.22 252.43 209.23 251.16 210.52 249.31C212.06 247.1 212.45 244.32 213.33 241.77C215.18 236.42 220.66 232.56 221.55 226.89C221.92 224.54 221.92 221.79 222.59 220.33C222.98 219.47 231.99 203.96 235.2 197.24C238.29 190.78 240.6 187.74 237.8 179.98C235 172.22 225.46 144.91 218.72 135.42C214.89 130.04 208.82 128.5 201.46 127.87C195.86 142.46 202.38 157.52 202.38 157.52L217.19 186.1C217.19 186.1 211.43 205.78 207.83 216.72C206.83 219.76 204.81 221.64 202.54 225.01C201.55 226.47 199.29 229.04 198.48 230.61C197.44 232.63 197.47 233.93 196.98 236.76C196.21 241.26 195.04 251.53 195.39 252.2Z" fill="#D8D5A4"/>
<path d="M200.68 127.79C204.55 127.94 210.11 128.6 213.43 130.28C216.76 131.96 219.06 134.03 222.88 141.69C226.71 149.35 232.28 164.23 232.28 164.23C232.28 164.23 230.43 175.46 212.67 178.37L200.67 156.24C200.68 156.24 195.33 142.45 200.68 127.79Z" fill="#DBD614"/>
<path d="M154.54 92.05C155.12 92.89 155.44 94.05 155.9 94.97C156.54 96.27 157.19 97.58 158.14 98.69C160.44 101.34 163.68 103.28 166.62 105.16C168.41 106.3 170.45 107.37 172.63 107.06C174.85 106.74 177.24 107.22 179.5 107.43C182.12 107.67 184.75 107.9 187.37 108.14L186.93 116.41C186.93 116.41 187.9 114.22 189.24 111.6C190.39 109.35 195.16 97.93 195.18 97.89C197.55 92.23 200.36 84.7 197.53 78.75C196.86 77.35 195.87 76.04 194.45 75.22C194.74 74.13 194.83 73.37 194.71 72.4C194.33 69.2 192.7 67.37 190.53 65.78C188.36 64.19 185.73 63.33 183.11 62.72C179.59 61.91 175.98 61.51 172.37 61.53C168.78 61.54 165.36 62.15 161.83 62.74C159.89 63.07 157.93 63.33 155.96 63.35C155.13 63.36 154.21 63.41 153.42 63.23C152.39 62.99 151.35 62.48 150.35 62.12C150.17 62.06 149.97 61.99 149.8 62.08C149.63 62.16 149.55 62.37 149.5 62.55C148.87 64.86 149.66 67.87 151.13 69.76C150.53 69.68 150.06 69.48 149.83 69.38C149.34 69.18 148.92 68.9 148.48 68.62C147.68 68.12 147.19 67.54 146.58 66.81C146.49 66.71 146.4 66.6 146.27 66.58C146.07 66.54 145.9 66.72 145.78 66.88C144.64 68.44 144.36 70.52 144.74 72.41C145.12 74.3 146.12 76.02 147.34 77.52C146.03 79.46 146.01 82.1 146.99 84.23C147.42 85.17 148.03 86.03 148.76 86.77C149.66 87.69 150.72 88.44 151.67 89.3C152.64 90.16 153.8 90.96 154.54 92.05Z" fill="#37474F"/>
<path d="M178.51 78.27C178.53 80.47 178.84 82.02 179.08 82.69C179.55 84.05 180.32 84.94 181.31 85.98C182.33 87.04 183.59 87.89 184.41 89.11C185.53 90.77 185.92 92.92 186.15 94.87C186.29 96.05 186.66 97.35 187.67 97.97C189.81 99.29 191.09 96.73 192.23 95.47C193.7 94.11 198.06 92.45 200.08 97.09C202.17 101.89 198.32 108.25 194.8 109.23C188.75 110.92 187.43 106.8 187.43 106.8L186.27 128.4C182.85 134.87 174.83 136.93 169.56 135.9C165.01 135.01 162.51 131.82 166.79 127.2L167.02 120.62C167.02 120.62 161.56 121.27 158.93 120.77C154.55 119.95 152.37 116.22 151.19 111.41C149.29 103.68 148.42 95.55 150.77 78.15C151.85 77.56 156.17 80.93 162.72 81.38C169.24 81.82 175.25 80.07 178.51 78.27Z" fill="#D8D5A4"/>
<path d="M167.04 120.62C167.04 120.62 176.94 118.96 180.44 117.24C182.78 116.09 184.75 114.03 185.35 112.69C185.35 112.69 184.61 115.59 182.47 118.15C179.85 121.28 166.96 123.23 166.96 123.23L167.04 120.62Z" fill="#A09C70"/>
<path d="M172.149 85.93L176.759 87.34C177.119 86.03 176.379 84.64 175.109 84.26C173.829 83.87 172.509 84.62 172.149 85.93Z" fill="#263238"/>
<path d="M170.55 107.81L163.77 110.11C164.37 112.05 166.38 113.11 168.25 112.48C170.12 111.84 171.15 109.75 170.55 107.81Z" fill="#874C4C"/>
<path d="M169.999 109.47C168.129 109.47 166.559 110.76 166.129 112.5C166.799 112.71 167.529 112.71 168.239 112.47C169.559 112.02 170.439 110.86 170.649 109.53C170.439 109.5 170.219 109.47 169.999 109.47Z" fill="#F28F8F"/>
<path d="M151.57 86.71L156.25 86.09C156.11 84.82 154.95 83.92 153.66 84.09C152.37 84.26 151.44 85.43 151.57 86.71Z" fill="#263238"/>
<path d="M180.399 88.7L195.869 94C195.869 94 193.449 93.8 191.409 96.26L180.459 92.1L180.399 88.7Z" fill="#263238"/>
<path d="M153.88 94.74C153.85 95.8 154.65 96.68 155.67 96.71C156.69 96.74 157.55 95.91 157.58 94.85C157.61 93.79 156.82 92.91 155.79 92.87C154.77 92.84 153.91 93.68 153.88 94.74Z" fill="#263238"/>
<path d="M171.55 94.75C171.52 95.81 172.32 96.69 173.34 96.72C174.36 96.75 175.22 95.92 175.25 94.86C175.28 93.8 174.48 92.92 173.46 92.88C172.44 92.85 171.58 93.69 171.55 94.75Z" fill="#263238"/>
<path d="M144.749 89.83C144.819 90.77 145.419 91.64 145.729 92.01C145.889 92.2 146.039 92.46 146.119 92.79C146.479 94.28 146.789 97.1 147.489 98.68C148.199 100.26 149.679 102.77 153.829 102.86C154.639 102.88 155.349 102.81 155.989 102.68C156.049 102.67 156.099 102.66 156.149 102.64C156.819 102.48 157.399 102.25 157.899 101.95C157.939 101.93 157.969 101.91 157.999 101.88C158.049 101.85 158.099 101.82 158.149 101.79C158.189 101.76 158.239 101.73 158.339 101.66C158.399 101.62 158.459 101.57 158.509 101.53C158.579 101.48 158.639 101.43 158.699 101.37C158.759 101.32 158.819 101.27 158.879 101.21C158.999 101.1 159.109 100.99 159.219 100.87C159.829 100.2 160.279 99.42 160.629 98.63C161.539 96.57 161.309 93.69 162.809 93.36C162.869 93.35 162.929 93.34 162.989 93.33C163.049 93.32 163.119 93.32 163.189 93.32C165.229 93.35 165.009 96.49 166.149 98.73C167.289 100.97 169.179 103.16 173.619 103.22C173.819 103.22 174.009 103.22 174.189 103.22C174.349 103.21 174.499 103.2 174.649 103.19C175.029 103.16 175.389 103.11 175.719 103.04C175.829 103.01 175.949 102.99 176.059 102.96C176.169 102.93 176.279 102.9 176.379 102.87C176.449 102.85 176.519 102.83 176.579 102.81C177.029 102.65 177.429 102.46 177.779 102.25C177.919 102.16 178.049 102.07 178.179 101.98C178.429 101.79 178.659 101.6 178.869 101.37C179.539 100.68 179.939 99.91 180.209 99.29C180.899 97.74 181.079 94.92 181.419 93.45C181.509 93.06 181.629 92.79 181.759 92.6C182.049 92.18 182.729 91.44 182.759 90.5C182.789 89.56 182.119 88.74 181.519 88.65C181.169 88.6 180.809 88.55 180.429 88.51C176.929 88.09 172.369 87.9 169.639 88.64C166.219 89.58 165.029 90.67 163.119 90.65C161.329 90.61 160.179 89.47 156.929 88.41C154.339 87.57 150.079 87.59 146.819 87.89C146.469 87.92 146.129 87.96 145.809 88C145.279 88.04 144.689 88.89 144.749 89.83ZM167.269 91.97C167.449 91.7 167.789 91.43 168.239 91.17C168.299 91.13 168.349 91.1 168.419 91.07C168.449 91.05 168.479 91.04 168.519 91.02C168.669 90.94 168.829 90.86 168.999 90.79C169.139 90.73 169.289 90.67 169.449 90.61C169.899 90.44 170.399 90.28 170.909 90.15C171.099 90.1 171.299 90.06 171.489 90.01C171.989 89.9 172.489 89.82 172.989 89.77C173.109 89.76 173.229 89.75 173.339 89.74C176.639 89.47 178.689 90.25 179.439 90.92C180.209 91.62 179.859 94.67 179.549 96.21C179.539 96.25 179.529 96.29 179.529 96.32C179.519 96.36 179.509 96.4 179.509 96.44C179.469 96.63 179.429 96.84 179.369 97.06C179.339 97.18 179.299 97.31 179.259 97.45C179.259 97.46 179.259 97.46 179.249 97.47C179.189 97.68 179.119 97.89 179.029 98.12C178.999 98.19 178.969 98.27 178.939 98.34C178.919 98.38 178.899 98.43 178.879 98.47C178.859 98.52 178.839 98.57 178.809 98.62C178.779 98.68 178.749 98.74 178.719 98.8C178.689 98.87 178.649 98.94 178.609 99.01C178.569 99.08 178.529 99.15 178.479 99.23C178.439 99.3 178.389 99.38 178.339 99.45C177.519 100.63 176.139 101.63 173.729 101.62C171.349 101.62 169.829 100.8 168.859 99.76C167.899 98.73 167.469 97.49 167.259 96.64C166.859 94.92 166.629 92.91 167.269 91.97ZM147.889 90.35C148.069 90.18 148.339 90 148.699 89.84C148.719 89.83 148.739 89.82 148.759 89.81C148.869 89.76 148.989 89.71 149.119 89.67C149.189 89.65 149.259 89.62 149.339 89.6C149.399 89.58 149.459 89.56 149.519 89.55C149.559 89.54 149.599 89.53 149.639 89.52C149.659 89.51 149.669 89.51 149.689 89.51C149.749 89.5 149.809 89.48 149.869 89.47C150.099 89.42 150.359 89.38 150.629 89.34C150.759 89.32 150.899 89.31 151.039 89.3C151.119 89.29 151.199 89.29 151.289 89.28C151.349 89.28 151.419 89.27 151.479 89.27C151.649 89.27 151.829 89.26 152.009 89.26C152.069 89.26 152.139 89.26 152.199 89.26C152.259 89.26 152.319 89.26 152.379 89.27C152.849 89.29 153.359 89.33 153.899 89.41C156.249 89.75 158.709 90.84 159.339 91.8C159.979 92.77 159.839 94.77 159.529 96.49C159.469 96.83 159.379 97.23 159.229 97.64C159.219 97.67 159.209 97.7 159.199 97.73C159.189 97.77 159.169 97.81 159.159 97.85C159.149 97.88 159.139 97.9 159.129 97.93C159.109 97.98 159.089 98.02 159.069 98.07C159.029 98.17 158.989 98.26 158.939 98.35C158.899 98.43 158.859 98.51 158.819 98.59C158.799 98.62 158.789 98.65 158.769 98.68C158.739 98.73 158.709 98.79 158.669 98.84C158.639 98.89 158.609 98.93 158.579 98.98C158.579 98.99 158.569 99 158.569 99C157.749 100.25 156.289 101.33 153.679 101.24C152.689 101.21 151.879 100.99 151.209 100.65C148.869 99.46 148.279 96.84 147.999 95.62C147.649 94.09 147.189 91.03 147.889 90.35Z" fill="#263238"/>
<path d="M163.759 93.43L163.409 106.28L156.239 104.21L162.929 93.32C163.239 93.29 163.509 93.34 163.759 93.43Z" fill="#BAB67D"/>
<path d="M277.55 95.09C304.866 95.09 327.01 80.5616 327.01 62.64C327.01 44.7184 304.866 30.19 277.55 30.19C250.234 30.19 228.09 44.7184 228.09 62.64C228.09 80.5616 250.234 95.09 277.55 95.09Z" fill="#01577D"/>
<path d="M238.07 81.41C237.8 85.76 232.89 93.54 224 96.37C223.44 96.55 223.51 97.15 224.1 97.24C228.95 98 241.91 98.91 251.47 89.48L238.07 81.41Z" fill="#01577D"/>
<path d="M261.26 45.5106C256.053 45.5106 252.126 47.602 249.095 50.9525L253.278 55.0714C255.348 52.6812 257.845 51.1446 261.452 51.1446C265.891 51.1446 269.391 54.1964 270.308 58.614H247.047C246.983 59.5316 246.94 60.4706 246.94 61.3456C246.94 70.5009 253.385 76.455 261.708 76.455C270.308 76.455 276.689 69.9033 276.689 60.9828C276.689 52.0623 270.138 45.5106 261.26 45.5106ZM261.729 70.885C257.184 70.885 253.854 67.8973 253.321 63.6078H270.287C269.305 68.068 265.848 70.885 261.729 70.885ZM287.149 45.1905H281.579V75.9215H287.149V45.1905ZM313.359 55.2421H307.917V57.5256C306.551 55.8396 304.567 54.6872 301.728 54.6872C296.03 54.6872 291.719 59.3609 291.719 65.5711C291.719 71.7814 296.03 76.455 301.728 76.455C304.567 76.455 306.573 75.3026 307.917 73.638V75.9215H313.359V55.2421ZM302.753 59.8731C305.932 59.8731 308.088 62.306 308.088 65.5711C308.088 68.8363 305.932 71.2692 302.753 71.2692C299.487 71.2692 297.417 68.7296 297.417 65.5711C297.417 62.4127 299.487 59.8731 302.753 59.8731Z" fill="white"/>
<path d="M359.62 93.32L354.01 95.01L349.96 81.48L355.55 79.8L359.62 93.32Z" fill="#E0E0E0"/>
<path d="M377.13 81.31C377.35 82.04 376.63 83.6 375.54 83.93C375.54 83.93 376.06 84.48 376.33 85.36C376.65 86.41 375.8 87.82 374.11 88.32C372.43 88.82 361.28 92.18 361.28 92.18L357.5 79.62H357.49C357.49 79.62 359.67 74.06 359.77 73.23C359.9 72.41 358.59 69.31 358.42 68.73C358.28 68.26 360.32 67.39 361.96 68.06C362.34 68.21 362.7 68.44 363.01 68.78C363.65 69.48 364.13 70.17 364.48 70.89C365.03 71.99 365.26 73.14 365.26 74.44L373.01 72.11C373.66 71.92 374.22 71.97 374.67 72.16C375.36 72.45 375.8 73.04 375.95 73.52C376.31 74.65 375.65 75.52 375.29 75.86C375.29 75.86 376.94 75.72 377.41 77.28C377.67 78.15 377.24 79.31 376.13 79.88C376.14 79.86 376.81 80.22 377.13 81.31Z" fill="#E0E0E0"/>
<path d="M440 233.61L432.82 231.88L437.01 214.54L444.19 216.27L440 233.61Z" fill="#E0E0E0"/>
<path d="M466.771 231.66C466.551 232.59 464.771 233.84 463.371 233.5C463.371 233.5 463.591 234.44 463.321 235.56C463.001 236.91 461.171 237.9 459.021 237.37C456.871 236.85 442.561 233.41 442.561 233.41L446.441 217.3L446.431 217.29C446.431 217.29 452.351 212.61 452.991 211.77C453.651 210.95 454.201 206.75 454.381 206C454.531 205.39 457.301 205.75 458.671 207.52C458.981 207.93 459.231 208.41 459.351 208.98C459.601 210.16 459.691 211.22 459.611 212.22C459.511 213.78 459.031 215.17 458.201 216.59L468.141 218.98C468.971 219.18 469.551 219.6 469.921 220.09C470.491 220.84 470.601 221.77 470.451 222.39C470.121 223.85 468.841 224.38 468.241 224.53C468.241 224.53 470.131 225.43 469.651 227.43C469.381 228.55 468.171 229.54 466.601 229.45C466.611 229.46 467.111 230.27 466.771 231.66Z" fill="#E0E0E0"/>
<path d="M76.8203 223.24L84.6703 225.6L90.3503 206.66L82.5103 204.3L76.8203 223.24Z" fill="#E0E0E0"/>
<path d="M52.29 206.41C51.99 207.43 52.99 209.62 54.52 210.08C54.52 210.08 53.79 210.85 53.42 212.08C52.97 213.55 54.17 215.52 56.53 216.22C58.88 216.92 74.5 221.63 74.5 221.63L79.79 204.04H79.8C79.8 204.04 76.75 196.26 76.6 195.09C76.42 193.94 78.25 189.6 78.49 188.79C78.69 188.13 75.83 186.92 73.53 187.85C73 188.07 72.5 188.39 72.06 188.86C71.16 189.85 70.49 190.81 70 191.81C69.22 193.35 68.91 194.96 68.91 196.78L58.06 193.51C57.15 193.24 56.36 193.32 55.74 193.58C54.77 193.98 54.15 194.81 53.95 195.48C53.45 197.07 54.38 198.29 54.87 198.76C54.87 198.76 52.56 198.57 51.9 200.75C51.53 201.97 52.14 203.59 53.69 204.39C53.68 204.39 52.75 204.89 52.29 206.41Z" fill="#E0E0E0"/>
</svg>
