<svg width="36" height="36" viewBox="0 0 36 36" fill="none" xmlns="http://www.w3.org/2000/svg">
<circle cx="18" cy="18" r="18" fill="#01577D"/>
<g clip-path="url(#clip0_539_1240)">
<path d="M15.75 25.5C16.1642 25.5 16.5 25.1642 16.5 24.75C16.5 24.3358 16.1642 24 15.75 24C15.3358 24 15 24.3358 15 24.75C15 25.1642 15.3358 25.5 15.75 25.5Z" stroke="white" stroke-width="2" stroke-linecap="round" stroke-linejoin="round"/>
<path d="M24 25.5C24.4142 25.5 24.75 25.1642 24.75 24.75C24.75 24.3358 24.4142 24 24 24C23.5858 24 23.25 24.3358 23.25 24.75C23.25 25.1642 23.5858 25.5 24 25.5Z" stroke="white" stroke-width="2" stroke-linecap="round" stroke-linejoin="round"/>
<path d="M9.75 9.75H12.75L14.76 19.7925C14.8286 20.1378 15.0164 20.448 15.2907 20.6687C15.5649 20.8895 15.908 21.0067 16.26 21H23.55C23.902 21.0067 24.2451 20.8895 24.5193 20.6687C24.7936 20.448 24.9814 20.1378 25.05 19.7925L26.25 13.5H13.5" stroke="white" stroke-width="2" stroke-linecap="round" stroke-linejoin="round"/>
</g>
<defs>
<clipPath id="clip0_539_1240">
<rect width="18" height="18" fill="white" transform="translate(9 9)"/>
</clipPath>
</defs>
</svg>
