<svg width="28" height="28" viewBox="0 0 28 28" fill="none" xmlns="http://www.w3.org/2000/svg">
<circle cx="14" cy="14" r="14" fill="#D2ECFB"/>
<path opacity="0.4" d="M14.0996 14.2967C15.8599 14.2967 17.287 12.8871 17.287 11.1483C17.287 9.40956 15.8599 8 14.0996 8C12.3392 8 10.9121 9.40956 10.9121 11.1483C10.9121 12.8871 12.3392 14.2967 14.0996 14.2967Z" fill="#72A6C2"/>
<path d="M19.1943 17.4495C19.1972 17.4046 19.1972 17.3597 19.1943 17.3149C19.1817 17.1493 19.1347 16.9876 19.056 16.8388C18.7461 16.2333 17.8774 15.9591 17.1525 15.8038C16.6354 15.6962 16.1099 15.6269 15.5811 15.5968L15.0278 15.5554H14.7788H14.4689H13.7275H13.4176H13.1686L12.6153 15.5968C12.0865 15.6269 11.5611 15.6962 11.0439 15.8038C10.3191 15.9384 9.45035 16.2178 9.14049 16.8388C9.06176 16.9876 9.01477 17.1493 9.00216 17.3149C8.99928 17.3597 8.99928 17.4046 9.00216 17.4495C8.9995 17.4943 8.9995 17.5392 9.00216 17.584C9.01721 17.7482 9.06606 17.9081 9.14602 18.0549C9.45588 18.6604 10.3246 18.9347 11.0494 19.0899C11.5676 19.1925 12.0926 19.2617 12.6209 19.2969L13.1742 19.3331H13.307H13.4232H14.7843H14.9005H15.0333L15.5867 19.2969C16.1149 19.2617 16.64 19.1925 17.1581 19.0899C17.8829 18.9502 18.7516 18.6759 19.0615 18.0549C19.1377 17.9034 19.1846 17.7405 19.1998 17.5737C19.2005 17.5322 19.1987 17.4907 19.1943 17.4495Z" fill="#5DA9EF"/>
</svg>
